<svg width="47" height="81" viewBox="0 0 47 81" fill="none" xmlns="http://www.w3.org/2000/svg">
<path d="M4 45.3027C4 43.4826 4.91289 42 6.03359 42H39.9664C41.0871 42 42 43.4826 42 45.3027C42 53.8004 38.7047 61.0567 34.0808 63.8772L33.9472 65.625C33.7988 67.5536 32.7894 69 31.5871 69H14.4055C13.2105 69 12.1937 67.5536 12.0453 65.625L11.9117 63.8893C7.29531 61.0567 4 53.8004 4 45.3027Z" stroke="black" stroke-width="6"/>
<path d="M20.3814 42.6099L20.1779 42.4228L5.91561 29.1851C3.41646 26.8662 2 23.6117 2 20.2026V19.9341C2 14.2062 6.07028 9.2919 11.7036 8.21792C14.9109 7.59956 18.1916 8.33996 20.8047 10.1788C21.5374 10.6995 22.2212 11.3016 22.8398 11.9931C23.1817 11.6026 23.5481 11.2446 23.9388 10.911C24.24 10.6507 24.5494 10.4066 24.875 10.1788C27.4881 8.33996 30.7688 7.59956 33.9761 8.20978C39.6094 9.28377 43.6797 14.2062 43.6797 19.9341V20.2026C43.6797 23.6117 42.2632 26.8662 39.7641 29.1851L25.5018 42.4228L25.2983 42.6099C24.6308 43.2283 23.7516 43.5781 22.8398 43.5781C21.9281 43.5781 21.0489 43.2364 20.3814 42.6099ZM21.4641 16.3135C21.4315 16.2891 21.4071 16.2565 21.3827 16.224L19.9337 14.5967L19.9255 14.5886C18.0451 12.4813 15.204 11.5212 12.4362 12.0501C8.6427 12.7742 5.90747 16.0775 5.90747 19.9341V20.2026C5.90747 22.5215 6.8762 24.7427 8.57758 26.3211L22.8398 39.5588L37.1021 26.3211C38.8035 24.7427 39.7722 22.5215 39.7722 20.2026V19.9341C39.7722 16.0857 37.037 12.7742 33.2516 12.0501C30.4838 11.5212 27.6346 12.4895 25.7623 14.5886C25.7623 14.5886 25.7623 14.5886 25.7542 14.5967C25.746 14.6049 25.7542 14.5967 25.746 14.6049L24.297 16.2321C24.2726 16.2647 24.24 16.2891 24.2156 16.3216C23.8493 16.6878 23.3527 16.8912 22.8398 16.8912C22.327 16.8912 21.8304 16.6878 21.4641 16.3216V16.3135Z" fill="black" stroke="black" stroke-width="2"/>
</svg>
